<svg width="400" height="282" viewBox="0 0 400 282" fill="none" xmlns="http://www.w3.org/2000/svg">
<g clip-path="url(#clip0_4077_1465)">
<path d="M204.288 281.291C216.319 281.291 226.072 271.539 226.072 259.508C226.072 247.477 216.319 237.724 204.288 237.724C192.257 237.724 182.505 247.477 182.505 259.508C182.505 271.539 192.257 281.291 204.288 281.291Z" fill="#5182CC"/>
<path d="M334.424 280.068C346.611 276.408 359.567 272.591 369.232 263.89C377.868 256.116 383.699 244.243 380.121 232.583C376.551 220.947 365.856 213.188 354.814 209.329C348.551 207.14 341.999 205.926 335.449 204.972C328.329 203.935 321.178 203.086 314.03 202.268C285.087 198.958 256.036 196.936 226.875 196.201C212.487 195.839 198.1 195.848 183.71 196.057C170.858 196.243 157.322 196.239 145.4 190.776C136.128 186.529 127.713 178.801 125.13 168.645C122.148 156.923 127.648 144.985 135.539 136.495C139.698 132.02 144.559 128.253 149.573 124.79C155.013 121.032 160.643 117.541 166.394 114.282C177.722 107.867 189.565 102.407 201.8 97.9597C207.836 95.7651 213.961 93.8716 220.14 92.1248C225.357 90.6499 230.59 89.1728 235.633 87.1632C245.38 83.2783 254.651 76.6977 257.129 65.9094C259.478 55.6846 255.518 44.5849 248.575 36.9891C240.542 28.2014 228.43 24.3491 216.818 23.7258C203.782 23.0261 191.046 26.2887 178.793 30.4294C165.725 34.8457 152.938 39.9238 139.593 43.501C126.36 47.0448 112.871 49.5522 99.2482 51.0005C92.5795 51.7106 85.7092 52.5124 79.0008 51.9688C73.3785 51.5132 67.785 49.8597 63.6415 45.8696C60.0886 42.4482 57.9721 37.7462 58.6998 32.7841C58.8319 31.8829 60.2011 32.266 60.0697 33.1618C59.184 39.202 63.2898 44.768 68.3494 47.6191C74.1969 50.9142 81.3125 50.9187 87.8228 50.5419C101.939 49.6893 115.96 47.6625 129.739 44.4824C143.279 41.3899 156.336 36.9689 169.378 32.2462C181.764 27.7609 194.427 23.3833 207.66 22.4118C219.142 21.5688 231.22 23.2415 241.223 29.2419C250.014 34.5154 256.478 43.3099 258.538 53.4018C260.551 63.2634 257.763 73.1893 250.298 80.071C242.569 87.1963 231.971 90.2426 222.095 93.0482C209.568 96.6067 197.31 100.766 185.445 106.167C173.419 111.626 161.884 118.111 150.97 125.549C140.436 132.748 130.039 141.806 126.707 154.649C125.155 160.632 125.442 166.977 128.039 172.628C130.348 177.652 134.151 181.878 138.581 185.138C149.151 192.916 162.473 194.513 175.241 194.672C189.581 194.85 203.921 194.366 218.265 194.602C247.499 195.082 276.673 196.861 305.787 199.94C313.082 200.712 320.368 201.566 327.645 202.501C334.191 203.342 340.758 204.177 347.193 205.671C358.635 208.327 369.769 213.433 376.881 223.135C380.037 227.34 381.993 232.323 382.539 237.552C383.036 243.01 381.7 248.477 379.233 253.332C373.772 264.077 363.542 270.911 352.679 275.402C346.861 277.807 340.825 279.629 334.802 281.438C333.924 281.701 333.549 280.33 334.424 280.068Z" fill="#F2F2F2"/>
<path d="M59.6171 44.2773C65.894 44.2773 70.9824 39.1888 70.9824 32.9119C70.9824 26.6351 65.894 21.5466 59.6171 21.5466C53.3402 21.5466 48.2518 26.6351 48.2518 32.9119C48.2518 39.1888 53.3402 44.2773 59.6171 44.2773Z" fill="#F2F2F2"/>
<path d="M138.464 65.8241C144.741 65.8241 149.829 60.7357 149.829 54.4588C149.829 48.1819 144.741 43.0935 138.464 43.0935C132.187 43.0935 127.099 48.1819 127.099 54.4588C127.099 60.7357 132.187 65.8241 138.464 65.8241Z" fill="#F2F2F2"/>
<path d="M205.235 22.7306C211.512 22.7306 216.601 17.6422 216.601 11.3653C216.601 5.08842 211.512 0 205.235 0C198.958 0 193.87 5.08842 193.87 11.3653C193.87 17.6422 198.958 22.7306 205.235 22.7306Z" fill="#F2F2F2"/>
<path d="M246.908 71.0331C253.185 71.0331 258.273 65.9447 258.273 59.6678C258.273 53.3909 253.185 48.3025 246.908 48.3025C240.631 48.3025 235.543 53.3909 235.543 59.6678C235.543 65.9447 240.631 71.0331 246.908 71.0331Z" fill="#F2F2F2"/>
<path d="M190.555 126.913C196.832 126.913 201.92 121.824 201.92 115.547C201.92 109.271 196.832 104.182 190.555 104.182C184.278 104.182 179.19 109.271 179.19 115.547C179.19 121.824 184.278 126.913 190.555 126.913Z" fill="#F2F2F2"/>
<path d="M119.048 153.905C125.325 153.905 130.414 148.817 130.414 142.54C130.414 136.263 125.325 131.175 119.048 131.175C112.771 131.175 107.683 136.263 107.683 142.54C107.683 148.817 112.771 153.905 119.048 153.905Z" fill="#F2F2F2"/>
<path d="M194.817 196.052C201.094 196.052 206.182 190.963 206.182 184.686C206.182 178.409 201.094 173.321 194.817 173.321C188.54 173.321 183.452 178.409 183.452 184.686C183.452 190.963 188.54 196.052 194.817 196.052Z" fill="#F2F2F2"/>
<path d="M276.268 219.729C282.545 219.729 287.634 214.641 287.634 208.364C287.634 202.087 282.545 196.999 276.268 196.999C269.992 196.999 264.903 202.087 264.903 208.364C264.903 214.641 269.992 219.729 276.268 219.729Z" fill="#F2F2F2"/>
<path d="M371.453 214.52C377.73 214.52 382.818 209.432 382.818 203.155C382.818 196.878 377.73 191.79 371.453 191.79C365.176 191.79 360.088 196.878 360.088 203.155C360.088 209.432 365.176 214.52 371.453 214.52Z" fill="#F2F2F2"/>
<path d="M201.955 32.2033C167.91 32.4438 140.034 60.1098 139.551 94.152C139.546 94.4663 139.544 96.6763 139.545 99.5667C139.545 103.805 141.228 107.869 144.225 110.866C147.222 113.863 151.286 115.547 155.524 115.547C157.625 115.547 159.705 115.132 161.646 114.328C163.587 113.523 165.35 112.344 166.834 110.857C168.319 109.371 169.496 107.607 170.299 105.665C171.102 103.724 171.514 101.643 171.512 99.5422C171.51 97.576 171.509 96.2151 171.509 96.1316C171.508 90.8704 172.877 85.6995 175.48 81.1277C178.084 76.5558 181.832 72.7404 186.358 70.0568C190.883 67.3732 196.029 65.9138 201.289 65.8222C206.55 65.7306 211.743 67.0099 216.359 69.5343C220.975 72.0587 224.855 75.7413 227.616 80.2197C230.377 84.6981 231.924 89.8182 232.107 95.0762C232.289 100.334 231.099 105.549 228.654 110.208C226.21 114.867 222.594 118.809 218.164 121.646L218.17 121.653C218.17 121.653 195.426 136.295 188.492 156.381L188.497 156.383C187.278 160.498 186.66 164.767 186.663 169.059C186.663 170.823 186.767 186.259 186.967 198.788C187.038 203.11 188.804 207.232 191.886 210.264C194.969 213.296 199.119 214.995 203.442 214.994C205.615 214.994 207.766 214.564 209.771 213.73C211.777 212.895 213.598 211.672 215.129 210.131C216.661 208.59 217.872 206.762 218.694 204.751C219.516 202.74 219.933 200.587 219.919 198.414C219.85 186.941 219.812 173.58 219.812 172.611C219.812 160.277 231.71 147.988 241.484 139.974C252.738 130.746 260.837 118.171 264.09 103.985C264.809 101.064 265.206 98.0733 265.273 95.0661C265.273 86.7724 263.632 78.5607 260.444 70.9041C257.257 63.2474 252.585 56.2973 246.7 50.454C240.814 44.6107 233.83 39.9897 226.151 36.8574C218.471 33.7251 210.248 32.1434 201.955 32.2033Z" fill="#5182CC"/>
<path d="M297.605 129.279C305.451 129.279 311.812 122.918 311.812 115.072C311.812 107.226 305.451 100.865 297.605 100.865C289.759 100.865 283.398 107.226 283.398 115.072C283.398 122.918 289.759 129.279 297.605 129.279Z" fill="#2F2E41"/>
<path d="M271.353 275.67H265.547L262.785 253.276H271.354L271.353 275.67Z" fill="#A0616A"/>
<path d="M261.4 274.011H272.597V281.061H254.35C254.35 280.135 254.533 279.218 254.887 278.363C255.241 277.508 255.761 276.73 256.415 276.076C257.07 275.421 257.847 274.902 258.702 274.548C259.558 274.193 260.474 274.011 261.4 274.011Z" fill="#2F2E41"/>
<path d="M316.34 275.67H310.535L307.773 253.276H316.342L316.34 275.67Z" fill="#A0616A"/>
<path d="M306.388 274.011H317.584V281.061H299.338C299.338 280.135 299.52 279.218 299.875 278.363C300.229 277.508 300.748 276.73 301.403 276.076C302.058 275.421 302.835 274.902 303.69 274.548C304.545 274.193 305.462 274.011 306.388 274.011Z" fill="#2F2E41"/>
<path d="M295.446 129.362C301.87 129.362 307.077 124.154 307.077 117.731C307.077 111.307 301.87 106.1 295.446 106.1C289.022 106.1 283.815 111.307 283.815 117.731C283.815 124.154 289.022 129.362 295.446 129.362Z" fill="#A0616A"/>
<path d="M302.378 166.883L307.583 154.926C308.847 152.121 309.209 148.993 308.619 145.973C308.03 142.954 306.518 140.191 304.292 138.068C303.834 137.616 303.349 137.193 302.838 136.803C300.27 134.794 297.105 133.699 293.845 133.692C291.653 133.7 289.488 134.182 287.499 135.103C287.329 135.179 287.163 135.259 286.992 135.34C286.666 135.496 286.344 135.667 286.031 135.842C283.993 137.012 282.258 138.646 280.966 140.61C279.675 142.574 278.863 144.815 278.596 147.15L276.3 166.396C275.722 167.906 255.113 222.46 262.32 264.109C262.397 264.554 262.614 264.962 262.94 265.275C263.265 265.588 263.682 265.788 264.129 265.847L271.436 266.841C271.97 266.914 272.511 266.782 272.951 266.472C273.392 266.162 273.698 265.697 273.809 265.17L286.069 206.728C286.146 206.365 286.342 206.038 286.626 205.799C286.91 205.561 287.266 205.424 287.637 205.412C288.007 205.399 288.372 205.511 288.671 205.73C288.971 205.949 289.189 206.262 289.289 206.619L306.612 268.077C306.735 268.524 307.002 268.918 307.371 269.198C307.739 269.479 308.19 269.631 308.653 269.631C308.791 269.63 308.929 269.617 309.065 269.593L317.991 267.874C318.51 267.777 318.974 267.489 319.292 267.068C319.61 266.646 319.76 266.121 319.711 265.596C318.399 250.968 311.428 177.695 302.378 166.883Z" fill="#2F2E41"/>
<path d="M250.245 127.41C250.164 128.101 250.236 128.802 250.456 129.463C250.675 130.124 251.037 130.728 251.515 131.234C251.993 131.74 252.577 132.135 253.224 132.39C253.871 132.646 254.567 132.757 255.262 132.715L261.763 148.339L266.681 141.049L259.753 127.33C259.606 126.167 259.036 125.099 258.153 124.328C257.271 123.557 256.136 123.137 254.964 123.147C253.792 123.156 252.664 123.596 251.794 124.382C250.925 125.167 250.373 126.245 250.245 127.41Z" fill="#A0616A"/>
<path d="M294.801 182.615C295.492 182.533 296.157 182.299 296.748 181.932C297.34 181.565 297.843 181.072 298.224 180.489C298.604 179.906 298.852 179.247 298.95 178.558C299.048 177.868 298.994 177.166 298.791 176.5L312.47 166.537L304.235 163.453L292.508 173.387C291.412 173.802 290.506 174.604 289.962 175.642C289.417 176.681 289.273 177.882 289.556 179.02C289.838 180.157 290.528 181.151 291.495 181.814C292.462 182.477 293.638 182.762 294.801 182.615Z" fill="#A0616A"/>
<path d="M272.502 158.755C271.978 158.754 271.455 158.703 270.94 158.601C269.696 158.364 268.529 157.825 267.542 157.031C266.556 156.237 265.78 155.212 265.282 154.047L256.174 142.941C255.981 142.706 255.841 142.433 255.763 142.139C255.684 141.846 255.67 141.539 255.719 141.24C255.769 140.94 255.883 140.655 256.052 140.402C256.221 140.15 256.442 139.937 256.7 139.777L263.18 135.766C263.42 135.618 263.686 135.518 263.964 135.474C264.241 135.429 264.525 135.44 264.799 135.505C265.073 135.571 265.331 135.69 265.558 135.856C265.785 136.022 265.978 136.231 266.124 136.471L272.543 147.048L284.837 137.962C285.816 137.449 286.947 137.305 288.023 137.556C289.1 137.808 290.049 138.439 290.699 139.333C291.349 140.227 291.655 141.325 291.563 142.426C291.47 143.527 290.984 144.559 290.193 145.331L277.923 156.524C276.481 157.954 274.532 158.755 272.502 158.755Z" fill="#2F2E41"/>
<path d="M305.722 175.458C305.705 175.458 305.689 175.458 305.672 175.458C305.373 175.451 305.079 175.381 304.809 175.253C304.539 175.125 304.299 174.941 304.104 174.714L298.343 167.993C298.147 167.764 298.001 167.496 297.916 167.207C297.831 166.918 297.808 166.614 297.85 166.315C297.891 166.016 297.995 165.73 298.155 165.474C298.315 165.219 298.528 165 298.779 164.833L309.567 157.641L299.793 145.891C299.225 144.943 299.016 143.822 299.206 142.733C299.395 141.645 299.97 140.66 300.826 139.96C301.681 139.26 302.76 138.891 303.865 138.921C304.969 138.951 306.027 139.377 306.843 140.122L318.722 151.73C319.657 152.584 320.37 153.652 320.802 154.843C321.233 156.033 321.369 157.311 321.197 158.565C321.026 159.82 320.553 161.014 319.819 162.046C319.085 163.077 318.111 163.915 316.981 164.488L307.273 174.789C307.074 175 306.833 175.169 306.566 175.284C306.3 175.399 306.012 175.458 305.722 175.458Z" fill="#2F2E41"/>
<path d="M292.489 150.692C292.396 150.692 292.304 150.686 292.212 150.674C291.811 150.625 291.432 150.463 291.121 150.205C290.809 149.947 290.578 149.606 290.455 149.221L286.126 135.948C286.017 135.612 286.034 135.249 286.173 134.924C286.311 134.6 286.563 134.337 286.88 134.184L287.021 134.117C287.148 134.057 287.274 133.997 287.403 133.94C289.422 133.003 291.62 132.515 293.845 132.508C296.734 132.513 299.558 133.362 301.972 134.95C302.295 135.165 302.521 135.499 302.601 135.88C302.681 136.26 302.608 136.656 302.399 136.984L294.277 149.707C294.087 150.009 293.823 150.258 293.51 150.43C293.197 150.602 292.846 150.692 292.489 150.692Z" fill="#E6E6E6"/>
<path d="M308.806 108.73C311.373 108.73 313.454 106.648 313.454 104.081C313.454 101.513 311.373 99.4321 308.806 99.4321C306.238 99.4321 304.157 101.513 304.157 104.081C304.157 106.648 306.238 108.73 308.806 108.73Z" fill="#2F2E41"/>
<path d="M292.869 98.9709C289.604 98.9709 286.472 100.268 284.163 102.577C281.854 104.886 280.557 108.018 280.557 111.283V116.492H286.964L290.028 111.283L290.947 116.492H310.391L305.182 111.283C305.182 108.018 303.885 104.886 301.576 102.577C299.267 100.268 296.135 98.9709 292.869 98.9709Z" fill="#2F2E41"/>
<path d="M311.195 100.896C311.709 99.2889 312.773 97.9142 314.201 97.0138C315.628 96.1134 317.327 95.7451 318.999 95.9735C321.962 96.4688 324.304 98.8502 325.7 101.51C327.096 104.17 327.74 107.146 328.678 110C329.617 112.853 330.947 115.722 333.316 117.569C335.684 119.416 339.319 119.917 341.646 118.017C341.38 119.997 340.498 121.844 339.125 123.295C337.753 124.747 335.958 125.731 333.996 126.107C332.034 126.483 330.003 126.232 328.191 125.391C326.379 124.549 324.877 123.159 323.898 121.418C322.671 119.234 322.354 116.674 321.99 114.196C321.626 111.717 321.153 109.152 319.687 107.12C318.222 105.089 315.478 103.762 313.15 104.687L311.195 100.896Z" fill="#2F2E41"/>
<path d="M160.036 107.989C155.798 107.988 151.734 106.304 148.737 103.307C145.74 100.31 144.057 96.246 144.056 92.0079C144.056 89.1175 144.058 86.9075 144.063 86.5932C144.197 76.6928 146.691 66.9672 151.336 58.2231C143.704 68.6711 139.508 81.2327 139.327 94.1701C139.323 94.4844 139.321 96.6944 139.321 99.5848C139.321 103.823 141.005 107.887 144.001 110.884C146.998 113.881 151.063 115.565 155.301 115.565C158.783 115.564 162.17 114.426 164.947 112.324C167.724 110.222 169.739 107.272 170.685 103.92C167.759 106.544 163.966 107.993 160.036 107.989Z" fill="#3F3D56"/>
<path d="M203.038 65.8759C207.937 66.1099 212.707 67.5295 216.937 70.0128C221.167 72.4961 224.731 75.969 227.323 80.1332C229.915 84.2973 231.458 89.0284 231.819 93.9202C232.18 98.812 231.348 103.718 229.396 108.218C232.22 104.9 234.296 101.013 235.482 96.8204C236.669 92.6278 236.937 88.2288 236.269 83.9232C235.601 79.6177 234.012 75.5068 231.611 71.8708C229.21 68.2349 226.053 65.1594 222.356 62.854C218.659 60.5486 214.508 59.0675 210.187 58.5117C205.865 57.9559 201.475 58.3385 197.314 59.6334C193.154 60.9282 189.322 63.1049 186.079 66.015C182.837 68.9251 180.259 72.5003 178.524 76.4967C181.524 72.9674 185.294 70.1744 189.545 68.3329C193.795 66.4915 198.411 65.6509 203.038 65.8759Z" fill="#3F3D56"/>
<path d="M207.954 207.435C203.631 207.436 199.48 205.738 196.398 202.706C193.316 199.674 191.549 195.552 191.479 191.229C191.279 178.701 191.175 163.265 191.175 161.5C191.172 157.209 191.79 152.939 193.009 148.824L193.003 148.823C193.723 146.758 194.593 144.747 195.605 142.808C192.498 146.949 190.025 151.53 188.268 156.4L188.274 156.401C187.054 160.516 186.437 164.786 186.439 169.077C186.439 170.841 186.543 186.277 186.744 198.806C186.814 203.129 188.581 207.251 191.663 210.283C194.745 213.314 198.895 215.013 203.219 215.012C206.783 215.011 210.252 213.855 213.104 211.716C215.956 209.578 218.037 206.572 219.036 203.15C216.007 205.912 212.054 207.441 207.954 207.435Z" fill="#3F3D56"/>
<path d="M59.9241 275.886L65.7294 275.885L68.4916 253.492L59.9227 253.492L59.9241 275.886Z" fill="#FFB8B8"/>
<path d="M76.9264 281.276L58.68 281.277L58.6797 274.227L69.8764 274.227C71.7461 274.227 73.5392 274.969 74.8614 276.291C76.1835 277.613 76.9264 279.406 76.9264 281.276Z" fill="#2F2E41"/>
<path d="M39.0877 275.886L44.893 275.885L47.6552 253.492L39.0863 253.492L39.0877 275.886Z" fill="#FFB8B8"/>
<path d="M44.161 268.999L38.4902 268.7C38.1978 268.685 37.9113 268.612 37.6474 268.485C37.3835 268.358 37.1474 268.18 36.9528 267.961C36.7582 267.742 36.6089 267.487 36.5136 267.21C36.4184 266.933 36.379 266.64 36.3978 266.348L43.1756 191.306L74.3881 199.728L77.3953 198.908L67.9913 265.341C67.9112 265.84 67.663 266.298 67.2878 266.637C66.9125 266.977 66.4327 267.178 65.9274 267.208L59.8144 267.493C59.5087 267.51 59.2028 267.464 58.9161 267.356C58.6294 267.249 58.368 267.084 58.1485 266.87C57.9291 266.657 57.7562 266.4 57.641 266.116C57.5258 265.833 57.4706 265.528 57.479 265.222L58.5867 225.351C58.5919 225.166 58.5278 224.987 58.4071 224.847C58.2865 224.708 58.1179 224.619 57.9347 224.597C57.7515 224.576 57.5669 224.624 57.4174 224.732C57.2678 224.84 57.1641 225 57.1266 225.18L46.4447 267.238C46.3439 267.737 46.0731 268.185 45.6785 268.507C45.284 268.829 44.79 269.004 44.2809 269.002C44.2412 269.002 44.2012 269.001 44.161 268.999Z" fill="#2F2E41"/>
<path d="M60.9664 129.906C67.39 129.906 72.5974 124.698 72.5974 118.275C72.5974 111.851 67.39 106.644 60.9664 106.644C54.5428 106.644 49.3354 111.851 49.3354 118.275C49.3354 124.698 54.5428 129.906 60.9664 129.906Z" fill="#FFB8B8"/>
<path d="M41.6016 152.446L42.8805 180.038L43.3428 190.077C43.3612 190.514 43.5096 190.936 43.7689 191.288C44.0283 191.64 44.3868 191.907 44.7986 192.054L74.7917 202.919C75.034 203.009 75.2907 203.054 75.5492 203.052C75.8446 203.054 76.1373 202.995 76.4097 202.881C76.6822 202.767 76.9289 202.599 77.135 202.388C77.3411 202.176 77.5025 201.925 77.6095 201.65C77.7165 201.374 77.7669 201.08 77.7577 200.785L76.528 151.172C76.4473 147.101 74.9489 143.187 72.2912 140.102C69.6335 137.018 65.9831 134.958 61.9692 134.277C61.6791 134.232 61.3839 134.188 61.0888 134.149C58.5998 133.84 56.0734 134.08 53.6873 134.852C51.3012 135.625 49.1133 136.911 47.2776 138.62C45.3767 140.368 43.8831 142.513 42.9023 144.902C41.9215 147.291 41.4775 149.866 41.6016 152.446Z" fill="#CCCCCC"/>
<path d="M89.1193 197.414C88.4099 197.193 87.7618 196.811 87.2267 196.295C86.6916 195.78 86.2843 195.147 86.0373 194.447C85.7903 193.746 85.7104 192.998 85.8041 192.261C85.8978 191.524 86.1625 190.819 86.5769 190.203L76.4059 176.678L85.1829 176.135L93.4958 189.062C94.3858 189.75 95.0051 190.729 95.245 191.828C95.485 192.927 95.3304 194.076 94.8083 195.072C94.2861 196.068 93.4299 196.849 92.3896 197.277C91.3494 197.705 90.1916 197.754 89.1193 197.414Z" fill="#FFB8B8"/>
<path d="M81.9681 187.756C81.6986 187.646 81.4535 187.484 81.2469 187.28C81.0404 187.075 80.8765 186.831 80.7647 186.563L65.4413 150.055C65.1406 149.34 64.9838 148.573 64.9797 147.797C64.9756 147.022 65.1244 146.253 65.4175 145.535C65.7106 144.817 66.1423 144.164 66.688 143.613C67.2336 143.062 67.8825 142.624 68.5975 142.324C69.3126 142.024 70.0797 141.868 70.8552 141.864C71.6307 141.861 72.3992 142.01 73.1169 142.304C73.8346 142.597 74.4874 143.03 75.038 143.576C75.5885 144.122 76.0261 144.771 76.3257 145.486L91.6491 181.995C91.8755 182.536 91.8781 183.145 91.6561 183.689C91.4341 184.232 91.0057 184.665 90.4649 184.892L83.6621 187.747C83.3943 187.861 83.1067 187.92 82.8159 187.921C82.5251 187.923 82.2369 187.866 81.9681 187.756Z" fill="#CCCCCC"/>
<path d="M57.2269 186.468L71.9447 158.287C72.2285 157.745 72.7157 157.338 73.2994 157.155C73.8831 156.971 74.5156 157.027 75.0582 157.31L96.421 168.467C96.963 168.751 97.3702 169.238 97.5534 169.822C97.7366 170.405 97.6808 171.038 97.3982 171.58L82.6804 199.761C82.3966 200.303 81.9094 200.71 81.3257 200.894C80.742 201.077 80.1094 201.021 79.5668 200.738L58.2041 189.581C57.6621 189.297 57.2549 188.81 57.0717 188.227C56.8885 187.643 56.9443 187.01 57.2269 186.468Z" fill="#3F3D56"/>
<path d="M67.0972 173.593C66.8355 172.897 66.415 172.273 65.8692 171.769C65.3234 171.266 64.6674 170.896 63.9535 170.691C63.2397 170.486 62.4877 170.45 61.7577 170.587C61.0277 170.724 60.3399 171.03 59.749 171.48L45.6473 162.126L45.6233 170.919L59.0182 178.455C59.7576 179.302 60.7719 179.863 61.8832 180.037C62.9945 180.212 64.1318 179.99 65.0956 179.41C66.0595 178.83 66.7883 177.929 67.1543 176.865C67.5203 175.801 67.5 174.643 67.0972 173.593Z" fill="#FFB8B8"/>
<path d="M49.2678 175.57L37.743 166.441C36.4963 166.022 35.3697 165.308 34.4601 164.358C33.5505 163.408 32.8849 162.251 32.5206 160.988C32.1562 159.724 32.104 158.391 32.3683 157.102C32.6327 155.814 33.2057 154.609 34.0382 153.591L44.5024 139.877C45.2296 138.989 46.2523 138.391 47.3835 138.195C48.5148 137.998 49.679 138.215 50.6634 138.806C51.6478 139.397 52.3867 140.323 52.7449 141.414C53.1031 142.504 53.0567 143.688 52.6142 144.747L44.3347 158.291L56.5022 164.062C56.7851 164.196 57.0364 164.389 57.2393 164.628C57.4423 164.866 57.5923 165.145 57.6795 165.446C57.7667 165.746 57.7891 166.062 57.7452 166.372C57.7012 166.682 57.592 166.98 57.4247 167.244L52.5131 175.017C52.3471 175.28 52.1278 175.504 51.8695 175.676C51.6112 175.849 51.3196 175.965 51.0135 176.017C51.0014 176.019 50.9891 176.021 50.9769 176.023C50.6762 176.068 50.3694 176.051 50.0755 175.974C49.7815 175.896 49.5066 175.758 49.2678 175.57Z" fill="#CCCCCC"/>
<path d="M52.1777 126.063C52.1278 125.917 52.112 125.761 52.1314 125.608C52.1509 125.455 52.2051 125.309 52.29 125.18C52.3748 125.051 52.4881 124.943 52.621 124.865C52.7539 124.786 52.903 124.74 53.0568 124.728C53.3718 124.745 53.6801 124.826 53.963 124.965C54.2459 125.105 54.4976 125.3 54.7029 125.54C55.1238 126.025 55.6139 126.446 56.1573 126.789C56.7199 127.072 57.483 127.032 57.8038 126.491C58.105 125.983 57.8986 125.303 57.7162 124.714C57.2522 123.213 56.9926 121.657 56.9444 120.087C56.8919 118.335 57.1391 116.506 58.1092 115.139C59.3612 113.375 61.6 112.706 63.7187 112.754C65.8373 112.803 67.9217 113.457 70.0203 113.87C70.7448 114.013 71.5964 114.086 72.081 113.525C72.5962 112.927 72.407 111.961 72.1879 111.155C71.6191 109.063 71.0158 106.9 69.6945 105.211C68.2658 103.455 66.2249 102.306 63.983 101.995C61.8306 101.729 59.6457 101.977 57.6078 102.719C54.2877 103.766 51.3662 105.801 49.234 108.553C47.0361 111.479 46.0864 115.157 46.5925 118.781C47.087 121.938 48.7599 124.791 51.274 126.763L52.1777 126.063Z" fill="#2F2E41"/>
<path d="M199.489 275.978C196.394 274.63 193.655 272.582 191.488 269.994C189.321 267.407 187.785 264.351 187.001 261.068C186.217 257.785 186.207 254.365 186.971 251.077C187.735 247.79 189.253 244.725 191.405 242.124C188.91 243.946 186.831 246.277 185.307 248.963C183.782 251.65 182.846 254.63 182.56 257.705C182.275 260.781 182.648 263.882 183.653 266.803C184.657 269.724 186.272 272.398 188.39 274.647C190.507 276.896 193.078 278.669 195.933 279.848C198.788 281.028 201.861 281.586 204.949 281.487C208.036 281.388 211.067 280.634 213.84 279.273C216.614 277.913 219.066 275.979 221.035 273.599C217.964 275.843 214.359 277.243 210.579 277.661C206.799 278.078 202.975 277.498 199.489 275.978Z" fill="#3F3D56"/>
<path d="M54.2467 281.05L36.0003 281.051L36 274.001L47.1967 274C49.0664 274 50.8595 274.743 52.1817 276.065C53.5038 277.387 54.2466 279.18 54.2467 281.05Z" fill="#2F2E41"/>
</g>
<defs>
<clipPath id="clip0_4077_1465">
<rect width="400" height="281.889" fill="white"/>
</clipPath>
</defs>
</svg>
